<?xml version="1.0" encoding="utf-8"?>
<!-- Generator: Adobe Illustrator 23.0.3, SVG Export Plug-In . SVG Version: 6.00 Build 0)  -->
<svg version="1.1" id="Layer_1" xmlns="http://www.w3.org/2000/svg" xmlns:xlink="http://www.w3.org/1999/xlink" x="0px" y="0px"
	 viewBox="0 0 100 100" style="enable-background:new 0 0 100 100;" xml:space="preserve">
<style type="text/css">
	.st0{fill:#FFFFFF;}
	.st1{fill:#C3D835;}
</style>
<g>
	<g>
		<circle class="st0" cx="50" cy="50" r="47.5"/>
	</g>
	<g>
		<path d="M45.5,16.4l-0.7-1.3l-3.3,0.7l-0.1,1.5l-2.7,0.5l1.1-10.3l3.1-0.6l5.2,9L45.5,16.4z M41.7,13.5l1.9-0.4L42,10L41.7,13.5z"
			/>
		<path d="M51,13.7l3.4,0.1l-0.1,2.4l-5.9-0.2l0.3-9.9l2.5,0.1L51,13.7z"/>
		<path d="M58,14.6l3.3,0.8l-0.5,2.4L55,16.4l2.2-9.6l2.5,0.6L58,14.6z"/>
		<path d="M74.2,13.6l2.1,1.3l-5.2,8.4l-1.7-1l-0.4-6l-2.6,4.2l-2.1-1.3l5.2-8.4l1.7,1l0.4,6L74.2,13.6z"/>
		<path d="M76.2,28.4l0.7-1.3l-2.3-2.4l-1.3,0.7l-1.9-2l9.3-4.5l2.2,2.3l-4.9,9.1L76.2,28.4z M76.6,23.7l1.4,1.4l1.8-3L76.6,23.7z"
			/>
		<path d="M89.5,31l-2.1,1.2l-1.2-2.1l-6.4,3.8l-1.3-2.2l6.4-3.8l-1.2-2.1l2.1-1.2L89.5,31z"/>
		<path d="M83.9,42.6c-0.8-0.5-1.4-1.3-1.7-2.4c-0.3-1.1-0.3-2.1,0.1-3c0.4-0.9,1.1-1.5,2.1-1.8l6.3-1.9l0.7,2.4l-6.1,1.9
			c-0.8,0.2-1.1,0.8-0.8,1.7c0.3,0.9,0.8,1.2,1.6,1l6.1-1.9l0.7,2.4l-6.3,1.9C85.6,43.2,84.7,43.1,83.9,42.6z"/>
		<path d="M83.9,49.9L87,48l0-0.9l-3.2,0.2l-0.1-2.5l9.8-0.5l0.2,3.9c0,1-0.2,1.9-0.8,2.6c-0.6,0.7-1.4,1.1-2.4,1.1
			c-0.6,0-1.1-0.1-1.6-0.4c-0.5-0.3-0.9-0.7-1.2-1.2L84,52.6L83.9,49.9z M91.3,46.9L89.1,47l0.1,1.4c0,0.3,0.1,0.6,0.3,0.7
			c0.2,0.2,0.5,0.3,0.8,0.3c0.3,0,0.6-0.1,0.8-0.3c0.2-0.2,0.3-0.5,0.3-0.8L91.3,46.9z"/>
		<path d="M82.6,59.1l1.5-0.2l0.7-3.3l-1.3-0.7l0.6-2.7l9,5.1l-0.7,3.1l-10.3,1.2L82.6,59.1z M86.8,56.7l-0.4,1.9l3.5-0.3L86.8,56.7
			z"/>
		<path d="M82.9,65.2l-1.4,3.1l-2.2-1l2.5-5.4l8.9,4.2l-1.1,2.3L82.9,65.2z"/>
	</g>
	<g>
		<path d="M50,89.1c-21.6,0-39.1-17.6-39.1-39.1c0-15.6,9.2-29.7,23.5-35.9l0.3,0.8c-14,6.1-23,19.9-23,35.1
			c0,21.1,17.2,38.3,38.3,38.3c12.2,0,23.8-5.9,31-15.8l0.7,0.5C74.3,83.1,62.5,89.1,50,89.1z"/>
	</g>
	<g>
		<g>
			<g>
				<path class="st1" d="M68.3,51.3c1.9,5.7,3.9,11,3.1,16.8c-0.6,4.5-3.6,8-7.4,8.7c-3.7,0.7-9.1-1.7-10.9-5
					c-1.8-3.1-1-8.3,1.9-11.4C58.7,56.5,63.3,53.8,68.3,51.3z"/>
			</g>
		</g>
		<g>
			<g>
				<path d="M45.5,78c-2.3,0-4.6-0.4-6.5-1.1c-7-2.8-12.1-12-11.4-20.6c0.9-10.1,4.5-19.5,9.6-30.4l0.4-0.9l2.5,1.7
					c9.2,6,18,11.7,23.6,21.1c4.7,7.9,4.3,17.3-0.9,23.3C59.1,75.3,51.9,78,45.5,78z M38.3,27.4c-4.8,10.4-8.2,19.4-9,29
					c-0.7,7.8,4.1,16.5,10.3,19c6.4,2.6,17.3-0.1,21.9-5.4c4.8-5.5,5.1-14.1,0.8-21.4c-5.4-9.1-14-14.7-23.1-20.6L38.3,27.4z"/>
			</g>
			<g>
				<path d="M54.7,75.7C42,67.9,38.9,36.7,38.8,35.4l0.8-0.1c0,0.3,3.2,32.1,15.5,39.6L54.7,75.7z"/>
			</g>
			<g>
				<path d="M41.3,46.6l-0.8-0.3c1.2-2.9,6.7-8.4,7-8.7l0.6,0.6C48,38.3,42.4,43.9,41.3,46.6z"/>
			</g>
			<g>
				<path d="M44.4,58.2l-0.8-0.3c1.9-4.4,9.1-13.2,9.4-13.6l0.6,0.5C53.6,45,46.2,53.9,44.4,58.2z"/>
			</g>
			<g>
				<path d="M47.8,66.6L47.2,66c4-3.8,11.8-15.7,11.9-15.8l0.7,0.5C59.4,51.1,51.8,62.7,47.8,66.6z"/>
			</g>
		</g>
	</g>
</g>
</svg>
